PathFileType	4	(X/Y/Z)	/Users/niels/Desktop/University/Third Semester/Perception and Action/Exam/Gymnastics Motion Tracking/Code for Gym Tracking/Analyzed Data/Webcam_Backflip/id1_3_baseline_Sports2D/id1_3_baseline_Sports2D_px_person00.trc
DataRate	CameraRate	NumFrames	NumMarkers	Units	OrigDataRate	OrigDataStartFrame	OrigNumFrames
29.87551867219917	29.87551867219917	11	22	m	29.87551867219917	150	241
Frame#	Time	Hip			RHip			RKnee			RAnkle			RBigToe			RSmallToe			RHeel			LHip			LKnee			LAnkle			LBigToe			LSmallToe			LHeel			Neck			Head			Nose			RShoulder			RElbow			RWrist			LShoulder			LElbow			LWrist		
		X1	Y1	Z1	X2	Y2	Z2	X3	Y3	Z3	X4	Y4	Z4	X5	Y5	Z5	X6	Y6	Z6	X7	Y7	Z7	X8	Y8	Z8	X9	Y9	Z9	X10	Y10	Z10	X11	Y11	Z11	X12	Y12	Z12	X13	Y13	Z13	X14	Y14	Z14	X15	Y15	Z15	X16	Y16	Z16	X17	Y17	Z17	X18	Y18	Z18	X19	Y19	Z19	X20	Y20	Z20	X21	Y21	Z21	X22	Y22	Z22
150	5.020833333333333	0.8224881301618538	-0.608171822460281	0.0	0.8371423576216226	-0.6063172139740335	0.0	0.9010718659740635	-0.702014129350106	0.0	0.9008724305767142	-0.8194278295361807	0.0	0.9459672664918175	-0.8251360935619617	0.0	0.9415760702634133	-0.8329268901104063	0.0	0.8916833440940318	-0.8338153312212535	0.0	0.8098253648738568	-0.6043703743335392	0.0	0.7909709096717591	-0.7039752627491657	0.0	0.7202837452715487	-0.7926447566488538	0.0	0.7532535260566263	-0.8166092075953206	0.0	0.7473049936670387	-0.8122113486867216	0.0	0.7054608562230249	-0.8052130289080192	0.0	0.873037579888879	-0.4465166697076159	0.0	0.927939299509177	-0.39937640982889855	0.0	0.9205083805116727	-0.4422490605795662	0.0	0.8582499879495373	-0.46531366700447435	0.0	0.8364613913847236	-0.5436707755727974	0.0	0.85610156045272	-0.6180318216320839	0.0	0.8457989828484633	-0.458837732892138	0.0	0.8283805330529145	-0.5326527811565955	0.0	0.8636428488646812	-0.5725003179144579	0.0
151	5.054305555555556	0.8304869770271555	-0.6044676993716325	0.0	0.8443363233271236	-0.6028933175423817	0.0	0.9028994710288948	-0.7011599830711445	0.0	0.9014323030582251	-0.8188097885990029	0.0	0.9470993785638379	-0.8252783651627007	0.0	0.9421953732319357	-0.8328261219513503	0.0	0.8919314544102018	-0.8331786631691896	0.0	0.8174946540236564	-0.600476866541312	0.0	0.8036923397481189	-0.7007454806565883	0.0	0.7263387316507554	-0.7839318858528252	0.0	0.7543990584060609	-0.8124295044630766	0.0	0.7482936463253201	-0.8067472679608351	0.0	0.7104509241021817	-0.7950655892496616	0.0	0.8799237161325488	-0.44257370911575705	0.0	0.9347413032994243	-0.39632565251465207	0.0	0.9273005550586884	-0.4389167830444566	0.0	0.864384178797259	-0.46138429955505633	0.0	0.8403776233854887	-0.5392543673863573	0.0	0.8595833147172753	-0.6142532651223626	0.0	0.852866083893431	-0.45523459510494413	0.0	0.8311119621269245	-0.5279436855749701	0.0	0.8643149754923798	-0.5765878273799429	0.0
152	5.087777777777778	0.838314837466718	-0.6012362838590112	0.0	0.8511978041946376	-0.5997573391302806	0.0	0.903990651096847	-0.7005738005689179	0.0	0.9019211269511723	-0.8185602570850321	0.0	0.9482315780414489	-0.8257544799040226	0.0	0.9429606236233777	-0.8330229050399549	0.0	0.8922548332516355	-0.8328532665903123	0.0	0.8250441781317925	-0.5969217490368274	0.0	0.8167901280420632	-0.6979726341991702	0.0	0.7341965673006429	-0.7759155479149454	0.0	0.7564783718841651	-0.8089927354193087	0.0	0.7504541844463335	-0.8020070245058926	0.0	0.7175420632973887	-0.7853578251080886	0.0	0.8863723565538153	-0.4392518117534535	0.0	0.941170386692081	-0.3938277280576843	0.0	0.9335338530955031	-0.4361536753993462	0.0	0.8704416182989277	-0.4582651500419395	0.0	0.8445163413312223	-0.5355549116369412	0.0	0.8636298470576889	-0.6111073293050314	0.0	0.8590205124925091	-0.45202135162976087	0.0	0.8321072103215605	-0.5227358646473438	0.0	0.8632941321954891	-0.580135975969629	0.0
153	5.12125	0.845784942350852	-0.5988026093814615	0.0	0.8575133951567516	-0.5972428695461214	0.0	0.904396260205459	-0.7003126136079378	0.0	0.9023660538803336	-0.8187293284386237	0.0	0.9492884993366268	-0.8265873640430151	0.0	0.9437815610610231	-0.8335107777137387	0.0	0.8926912129660574	-0.8328275675015321	0.0	0.8323781252262702	-0.5940666506439573	0.0	0.8295946437074337	-0.6958829077484978	0.0	0.7439136706281436	-0.7692758802581047	0.0	0.7603997536072673	-0.8065990642140405	0.0	0.754695824471564	-0.7984445609822799	0.0	0.7268937746303858	-0.7770904592278387	0.0	0.8922633259790809	-0.4367396431811128	0.0	0.9472021690055783	-0.3920159993056435	0.0	0.9390944070436614	-0.4341989201830925	0.0	0.8762915099364161	-0.456221244894022	0.0	0.8489219609465174	-0.5329582895814483	0.0	0.8682678738279007	-0.6089402955016959	0.0	0.8641217778098146	-0.4493437417844541	0.0	0.8321584656358143	-0.5173419879398375	0.0	0.8610220654203987	-0.5816105269495924	0.0
154	5.154722222222222	0.8526957207931541	-0.59738177112802	0.0	0.8631007032274151	-0.5956346800670508	0.0	0.9041416177840228	-0.7004352097690383	0.0	0.9027474733377372	-0.8193266009422108	0.0	0.950157424381714	-0.827686406921697	0.0	0.9444489132870538	-0.8341966152625411	0.0	0.8932017301762004	-0.833069625195347	0.0	0.8394239392367548	-0.5921861686112878	0.0	0.841651484017733	-0.6946094137558414	0.0	0.7553677499566193	-0.7645139728592981	0.0	0.7670675429171516	-0.8054411876726479	0.0	0.7618518574325568	-0.7963719938822269	0.0	0.7383764049297818	-0.7710431592657301	0.0	0.8975673964552343	-0.4351413927031114	0.0	0.952839050887069	-0.3909404513083026	0.0	0.9440017685670591	-0.4331460873491116	0.0	0.8817876224488536	-0.455371047679749	0.0	0.8535466986311874	-0.5317212623763619	0.0	0.8734485727719071	-0.6078895881883561	0.0	0.8682934461951225	-0.447287220270688	0.0	0.8321395577712957	-0.5124182526688399	0.0	0.858091287609545	-0.5805089801445072	0.0
155	5.188194444444444	0.8588428113047423	-0.5970180614540392	0.0	0.8677952205222647	-0.5950632645093183	0.0	0.9032936445381158	-0.7009808560344697	0.0	0.9030106997869928	-0.8203168200739679	0.0	0.9507696243508101	-0.8289343183309358	0.0	0.9447466366727	-0.835006010301661	0.0	0.8936872308949382	-0.8335648045990309	0.0	0.8461929343176855	-0.5914198706861312	0.0	0.8528473161268277	-0.694115498932257	0.0	0.7682557883463286	-0.7618977650629607	0.0	0.7770924917079824	-0.8055673541299687	0.0	0.77235813897017	-0.7958813028740906	0.0	0.7515386754183926	-0.7676001809945502	0.0	0.9023212967668242	-0.43450292795160933	0.0	0.9580212099452835	-0.3905491456956043	0.0	0.9483788943311374	-0.432907157533775	0.0	0.8867422324300522	-0.45566445409281864	0.0	0.8582496244227881	-0.5319470538112431	0.0	0.8790672175489394	-0.6078960628516232	0.0	0.8718903795584876	-0.4459618955762125	0.0	0.8325719873978972	-0.5086702092421064	0.0	0.8552046923950694	-0.5777621391754265	0.0
156	5.221666666666667	0.8640718363410086	-0.5975658110601948	0.0	0.8714637926229144	-0.5954326787090741	0.0	0.9020353875676715	-0.7018746690379165	0.0	0.9031014090688587	-0.8215860368491277	0.0	0.9511643648383566	-0.8302591054312368	0.0	0.9445712538285149	-0.8359421464109265	0.0	0.8940460541067461	-0.8342935264115166	0.0	0.8528145762607473	-0.5917182023460842	0.0	0.8634784715750069	-0.6941564545658828	0.0	0.7821578092157616	-0.761451082767789	0.0	0.7906526663448458	-0.8068820734662326	0.0	0.7861526784705221	-0.7968662458564291	0.0	0.7657385725605715	-0.7667727026027811	0.0	0.9065567995776745	-0.4347802207074765	0.0	0.9626538127087165	-0.39073102949745037	0.0	0.9523522753913343	-0.43331200859977986	0.0	0.8909398108560959	-0.4568635238956841	0.0	0.8628159240698501	-0.5334715290580291	0.0	0.8849658443128577	-0.6087414545915231	0.0	0.8753518755629722	-0.4455077955479697	0.0	0.8336061041997834	-0.5065276481322554	0.0	0.8530937061094577	-0.5749731315259377	0.0
157	5.255138888888889	0.8683245168455961	-0.5987387751095413	0.0	0.8740688385975074	-0.596462483232601	0.0	0.9006574396126694	-0.7029104802784053	0.0	0.9029865409752221	-0.8229480055952619	0.0	0.9514226716181191	-0.8316225970484868	0.0	0.9439553056276693	-0.8370471933503336	0.0	0.8942301351074065	-0.8351982048631771	0.0	0.8594643146262219	-0.592861092160254	0.0	0.8741941209476756	-0.6943278119295262	0.0	0.7966835968421484	-0.7629678166893812	0.0	0.8074855070965219	-0.8091652618244486	0.0	0.802792771771428	-0.7990676946896478	0.0	0.7804158672716315	-0.7683261845265258	0.0	0.9102753181144353	-0.435824222606185	0.0	0.9666721326907927	-0.3913978344261241	0.0	0.9559899007224908	-0.4342374650225615	0.0	0.8942276867475253	-0.45856118178699873	0.0	0.8669946547887282	-0.5358144201648823	0.0	0.8908959043139824	-0.610097722962172	0.0	0.8790024202108032	-0.4459877622462996	0.0	0.8351990706233888	-0.5060635522969535	0.0	0.8522611266177715	-0.5735294731877261	0.0
158	5.288611111111111	0.871646749742982	-0.6001999713055093	0.0	0.8757465152255256	-0.5978209644956468	0.0	0.8994825181309859	-0.7038740006913703	0.0	0.902677889719225	-0.8242145213613212	0.0	0.9515870354558433	-0.832979883475356	0.0	0.9430391116762317	-0.8383219064632148	0.0	0.894258993583969	-0.8361994493946411	0.0	0.8662313854617477	-0.5945462222569927	0.0	0.8856429509426519	-0.6942393337687297	0.0	0.8115785610314854	-0.7660650543358206	0.0	0.8269555334957481	-0.8120826797612231	0.0	0.8216244131351832	-0.802079102544295	0.0	0.7952849577644001	-0.7718916627956424	0.0	0.9134822568437175	-0.43741696255568796	0.0	0.9700500272408645	-0.3924695171644586	0.0	0.9593097850213406	-0.43559197513664355	0.0	0.8966052780543122	-0.46030074697569956	0.0	0.8705508070396497	-0.5383431346689634	0.0	0.8965329863695571	-0.6115962076595324	0.0	0.8829559743938775	-0.44729241342513704	0.0	0.8373291156723301	-0.5071082117791132	0.0	0.8529890618508434	-0.5741796813693252	0.0
159	5.3220833333333335	0.8742034362721356	-0.6016717934516471	0.0	0.8768204937599838	-0.5992473669235017	0.0	0.8988035918131728	-0.7047087390551408	0.0	0.9022578861191847	-0.8252654784165314	0.0	0.9516789803621599	-0.8342714397835326	0.0	0.9420284736602879	-0.8396816483638256	0.0	0.8941799905720946	-0.8372332334142071	0.0	0.8729784571963208	-0.5964632931774997	0.0	0.8978224104160768	-0.6937467694123399	0.0	0.8266715179749498	-0.7702998089426324	0.0	0.8481561296273237	-0.8152106650433157	0.0	0.8419069924168806	-0.8053928967217806	0.0	0.8102728333104854	-0.7770356618199269	0.0	0.9162188844400676	-0.4393178694337922	0.0	0.9728025775820301	-0.3937984001858095	0.0	0.9622825105370131	-0.4372300266315674	0.0	0.8982692788953555	-0.461757760480072	0.0	0.8733696251679505	-0.5405685666819533	0.0	0.9015872278697428	-0.6129200749635898	0.0	0.8871531989561061	-0.44915977653141725	0.0	0.8401408901724631	-0.5093969593775117	0.0	0.8555239972160281	-0.5768813944484464	0.0
160	5.355555555555556	0.8762961387540605	-0.603030357245603	0.0	0.8777088039266477	-0.6006116428917023	0.0	0.898842979583897	-0.7055391753053859	0.0	0.9018588247657839	-0.8260632400664962	0.0	0.951736899716667	-0.8354152668297468	0.0	0.9411371441876722	-0.8409647018906361	0.0	0.894017735172278	-0.8382543038238177	0.0	0.8793072048970136	-0.5983523642054983	0.0	0.9096558634434241	-0.693078990768185	0.0	0.8417166880657474	-0.7753199210480857	0.0	0.869948281469215	-0.8181222834003993	0.0	0.8628088099755837	-0.8085428461817694	0.0	0.825281381663745	-0.78332707086784	0.0	0.918555399541297	-0.44128415109095637	0.0	0.9749970284756959	-0.395161903881751	0.0	0.9648444841858435	-0.4389290177836177	0.0	0.8995606950049844	-0.4628168880775875	0.0	0.8755222160365873	-0.5422825024815735	0.0	0.9058754852343521	-0.6138558256441237	0.0	0.891466679686429	-0.4512730678124358	0.0	0.8439595505291851	-0.5126948160263763	0.0	0.8600699977409907	-0.5809819452263539	0.0
